<mxfile host="Electron" modified="2023-06-12T06:03:40.655Z" agent="Mozilla/5.0 (Macintosh; Intel Mac OS X 10_15_7) AppleWebKit/537.36 (KHTML, like Gecko) draw.io/21.3.7 Chrome/112.0.5615.204 Electron/24.5.0 Safari/537.36" etag="wZraH9xxr1HYwSEObjbv" version="21.3.7" type="device">
  <diagram name="페이지-1" id="xf3qG20E59J4xfBVocez">
    <mxGraphModel dx="1164" dy="894" grid="1" gridSize="10" guides="1" tooltips="1" connect="1" arrows="1" fold="1" page="1" pageScale="1" pageWidth="827" pageHeight="1169" math="0" shadow="0">
      <root>
        <mxCell id="0" />
        <mxCell id="1" parent="0" />
        <mxCell id="tktSWQUwSu8XDeRZoA61-21" value="&lt;br&gt;&lt;br&gt;&lt;br&gt;&lt;br&gt;&lt;br&gt;&lt;br&gt;&lt;br&gt;&lt;br&gt;&lt;br&gt;&lt;br&gt;&lt;br&gt;&lt;br&gt;&lt;br&gt;&lt;br&gt;&lt;br&gt;&lt;br&gt;&lt;br&gt;&lt;br&gt;&lt;br&gt;&lt;br&gt;&lt;br&gt;&lt;br&gt;&lt;br&gt;&lt;br&gt;&lt;br&gt;&lt;br&gt;&lt;br&gt;&lt;br&gt;&lt;br&gt;&lt;b&gt;Spring 웹 MVC&lt;/b&gt;" style="rounded=1;whiteSpace=wrap;html=1;fillColor=#f5f5f5;fontColor=#333333;strokeColor=#666666;align=center;" vertex="1" parent="1">
          <mxGeometry x="120" y="20" width="680" height="470" as="geometry" />
        </mxCell>
        <mxCell id="tktSWQUwSu8XDeRZoA61-10" style="edgeStyle=orthogonalEdgeStyle;rounded=0;orthogonalLoop=1;jettySize=auto;html=1;endArrow=block;endFill=1;" edge="1" parent="1">
          <mxGeometry relative="1" as="geometry">
            <mxPoint x="80" y="140" as="sourcePoint" />
            <mxPoint x="160" y="140" as="targetPoint" />
          </mxGeometry>
        </mxCell>
        <mxCell id="tktSWQUwSu8XDeRZoA61-1" value="" style="image;aspect=fixed;perimeter=ellipsePerimeter;html=1;align=center;shadow=0;dashed=0;fontColor=#4277BB;labelBackgroundColor=default;fontSize=12;spacingTop=3;image=img/lib/ibm/users/browser.svg;" vertex="1" parent="1">
          <mxGeometry x="40" y="130" width="40" height="40" as="geometry" />
        </mxCell>
        <mxCell id="tktSWQUwSu8XDeRZoA61-11" style="edgeStyle=orthogonalEdgeStyle;rounded=0;orthogonalLoop=1;jettySize=auto;html=1;entryX=1;entryY=0.5;entryDx=0;entryDy=0;endArrow=block;endFill=1;" edge="1" parent="1">
          <mxGeometry relative="1" as="geometry">
            <mxPoint x="160" y="158" as="sourcePoint" />
            <mxPoint x="80" y="158" as="targetPoint" />
          </mxGeometry>
        </mxCell>
        <mxCell id="tktSWQUwSu8XDeRZoA61-12" style="edgeStyle=orthogonalEdgeStyle;rounded=0;orthogonalLoop=1;jettySize=auto;html=1;entryX=0;entryY=0.5;entryDx=0;entryDy=0;endArrow=block;endFill=1;" edge="1" parent="1" source="tktSWQUwSu8XDeRZoA61-2" target="tktSWQUwSu8XDeRZoA61-3">
          <mxGeometry relative="1" as="geometry">
            <Array as="points">
              <mxPoint x="220" y="70" />
            </Array>
          </mxGeometry>
        </mxCell>
        <mxCell id="tktSWQUwSu8XDeRZoA61-13" style="edgeStyle=orthogonalEdgeStyle;rounded=0;orthogonalLoop=1;jettySize=auto;html=1;entryX=0;entryY=0.5;entryDx=0;entryDy=0;endArrow=block;endFill=1;" edge="1" parent="1">
          <mxGeometry relative="1" as="geometry">
            <mxPoint x="280" y="139" as="sourcePoint" />
            <mxPoint x="450" y="139" as="targetPoint" />
          </mxGeometry>
        </mxCell>
        <mxCell id="tktSWQUwSu8XDeRZoA61-19" style="edgeStyle=orthogonalEdgeStyle;rounded=0;orthogonalLoop=1;jettySize=auto;html=1;entryX=0;entryY=0.5;entryDx=0;entryDy=0;endArrow=block;endFill=1;" edge="1" parent="1" source="tktSWQUwSu8XDeRZoA61-2" target="tktSWQUwSu8XDeRZoA61-8">
          <mxGeometry relative="1" as="geometry">
            <Array as="points">
              <mxPoint x="250" y="310" />
            </Array>
          </mxGeometry>
        </mxCell>
        <mxCell id="tktSWQUwSu8XDeRZoA61-20" style="edgeStyle=orthogonalEdgeStyle;rounded=0;orthogonalLoop=1;jettySize=auto;html=1;startArrow=block;startFill=1;endArrow=block;endFill=1;" edge="1" parent="1" source="tktSWQUwSu8XDeRZoA61-2" target="tktSWQUwSu8XDeRZoA61-9">
          <mxGeometry relative="1" as="geometry" />
        </mxCell>
        <mxCell id="tktSWQUwSu8XDeRZoA61-2" value="Dispatcher Servlet" style="rounded=0;whiteSpace=wrap;html=1;" vertex="1" parent="1">
          <mxGeometry x="160" y="120" width="120" height="60" as="geometry" />
        </mxCell>
        <mxCell id="tktSWQUwSu8XDeRZoA61-3" value="HandlerMapping" style="rounded=0;whiteSpace=wrap;html=1;" vertex="1" parent="1">
          <mxGeometry x="320" y="40" width="120" height="60" as="geometry" />
        </mxCell>
        <mxCell id="tktSWQUwSu8XDeRZoA61-14" style="edgeStyle=orthogonalEdgeStyle;rounded=0;orthogonalLoop=1;jettySize=auto;html=1;endArrow=block;endFill=1;" edge="1" parent="1">
          <mxGeometry relative="1" as="geometry">
            <mxPoint x="450" y="160" as="sourcePoint" />
            <mxPoint x="280" y="160" as="targetPoint" />
          </mxGeometry>
        </mxCell>
        <mxCell id="tktSWQUwSu8XDeRZoA61-15" style="edgeStyle=orthogonalEdgeStyle;rounded=0;orthogonalLoop=1;jettySize=auto;html=1;endArrow=block;endFill=1;" edge="1" parent="1">
          <mxGeometry relative="1" as="geometry">
            <mxPoint x="570" y="140" as="sourcePoint" />
            <mxPoint x="620" y="140" as="targetPoint" />
          </mxGeometry>
        </mxCell>
        <mxCell id="tktSWQUwSu8XDeRZoA61-4" value="HandlerAdapter" style="rounded=0;whiteSpace=wrap;html=1;" vertex="1" parent="1">
          <mxGeometry x="450" y="120" width="120" height="60" as="geometry" />
        </mxCell>
        <mxCell id="tktSWQUwSu8XDeRZoA61-5" value="ModelAndView" style="rounded=0;whiteSpace=wrap;html=1;" vertex="1" parent="1">
          <mxGeometry x="310" y="170" width="110" height="30" as="geometry" />
        </mxCell>
        <mxCell id="tktSWQUwSu8XDeRZoA61-17" style="edgeStyle=orthogonalEdgeStyle;rounded=0;orthogonalLoop=1;jettySize=auto;html=1;entryX=1;entryY=0.5;entryDx=0;entryDy=0;endArrow=block;endFill=1;" edge="1" parent="1">
          <mxGeometry relative="1" as="geometry">
            <mxPoint x="620" y="159" as="sourcePoint" />
            <mxPoint x="570" y="159" as="targetPoint" />
          </mxGeometry>
        </mxCell>
        <mxCell id="tktSWQUwSu8XDeRZoA61-18" style="edgeStyle=orthogonalEdgeStyle;rounded=0;orthogonalLoop=1;jettySize=auto;html=1;startArrow=block;startFill=1;endArrow=block;endFill=1;" edge="1" parent="1" source="tktSWQUwSu8XDeRZoA61-6" target="tktSWQUwSu8XDeRZoA61-7">
          <mxGeometry relative="1" as="geometry" />
        </mxCell>
        <mxCell id="tktSWQUwSu8XDeRZoA61-6" value="@Controller" style="rounded=0;whiteSpace=wrap;html=1;fillColor=#ffe6cc;strokeColor=#d79b00;" vertex="1" parent="1">
          <mxGeometry x="620" y="120" width="120" height="60" as="geometry" />
        </mxCell>
        <mxCell id="tktSWQUwSu8XDeRZoA61-7" value="@Service, @Component, @Repository&lt;br&gt;비즈니스 로직 처리" style="rounded=0;whiteSpace=wrap;html=1;fillColor=#ffe6cc;strokeColor=#d79b00;" vertex="1" parent="1">
          <mxGeometry x="570" y="270" width="220" height="60" as="geometry" />
        </mxCell>
        <mxCell id="tktSWQUwSu8XDeRZoA61-8" value="ViewResolver" style="rounded=0;whiteSpace=wrap;html=1;" vertex="1" parent="1">
          <mxGeometry x="320" y="280" width="120" height="60" as="geometry" />
        </mxCell>
        <mxCell id="tktSWQUwSu8XDeRZoA61-9" value="View" style="rounded=0;whiteSpace=wrap;html=1;" vertex="1" parent="1">
          <mxGeometry x="160" y="400" width="120" height="60" as="geometry" />
        </mxCell>
        <mxCell id="tktSWQUwSu8XDeRZoA61-22" value="①" style="text;html=1;strokeColor=none;fillColor=none;align=center;verticalAlign=middle;whiteSpace=wrap;rounded=0;fontSize=15;fontStyle=1;fontColor=#3333FF;" vertex="1" parent="1">
          <mxGeometry x="80" y="120" width="35" height="20" as="geometry" />
        </mxCell>
        <mxCell id="tktSWQUwSu8XDeRZoA61-23" value="⑨" style="text;html=1;strokeColor=none;fillColor=none;align=center;verticalAlign=middle;whiteSpace=wrap;rounded=0;fontSize=15;fontStyle=1;fontColor=#3333FF;" vertex="1" parent="1">
          <mxGeometry x="125" y="170" width="35" height="20" as="geometry" />
        </mxCell>
        <mxCell id="tktSWQUwSu8XDeRZoA61-24" value="⑧" style="text;html=1;strokeColor=none;fillColor=none;align=center;verticalAlign=middle;whiteSpace=wrap;rounded=0;fontSize=15;fontStyle=1;fontColor=#3333FF;" vertex="1" parent="1">
          <mxGeometry x="180" y="280" width="35" height="20" as="geometry" />
        </mxCell>
        <mxCell id="tktSWQUwSu8XDeRZoA61-25" value="⑦" style="text;html=1;strokeColor=none;fillColor=none;align=center;verticalAlign=middle;whiteSpace=wrap;rounded=0;fontSize=15;fontStyle=1;fontColor=#3333FF;" vertex="1" parent="1">
          <mxGeometry x="255" y="190" width="35" height="20" as="geometry" />
        </mxCell>
        <mxCell id="tktSWQUwSu8XDeRZoA61-26" value="⑥" style="text;html=1;strokeColor=none;fillColor=none;align=center;verticalAlign=middle;whiteSpace=wrap;rounded=0;fontSize=15;fontStyle=1;fontColor=#3333FF;" vertex="1" parent="1">
          <mxGeometry x="415" y="170" width="35" height="20" as="geometry" />
        </mxCell>
        <mxCell id="tktSWQUwSu8XDeRZoA61-27" value="⑤" style="text;html=1;strokeColor=none;fillColor=none;align=center;verticalAlign=middle;whiteSpace=wrap;rounded=0;fontSize=15;fontStyle=1;fontColor=#3333FF;" vertex="1" parent="1">
          <mxGeometry x="640" y="220" width="35" height="20" as="geometry" />
        </mxCell>
        <mxCell id="tktSWQUwSu8XDeRZoA61-28" value="④" style="text;html=1;strokeColor=none;fillColor=none;align=center;verticalAlign=middle;whiteSpace=wrap;rounded=0;fontSize=15;fontStyle=1;fontColor=#3333FF;" vertex="1" parent="1">
          <mxGeometry x="570" y="110" width="35" height="20" as="geometry" />
        </mxCell>
        <mxCell id="tktSWQUwSu8XDeRZoA61-29" value="③" style="text;html=1;strokeColor=none;fillColor=none;align=center;verticalAlign=middle;whiteSpace=wrap;rounded=0;fontSize=15;fontStyle=1;fontColor=#3333FF;" vertex="1" parent="1">
          <mxGeometry x="290" y="110" width="35" height="20" as="geometry" />
        </mxCell>
        <mxCell id="tktSWQUwSu8XDeRZoA61-30" value="②" style="text;html=1;strokeColor=none;fillColor=none;align=center;verticalAlign=middle;whiteSpace=wrap;rounded=0;fontSize=15;fontStyle=1;fontColor=#3333FF;" vertex="1" parent="1">
          <mxGeometry x="190" y="70" width="35" height="20" as="geometry" />
        </mxCell>
      </root>
    </mxGraphModel>
  </diagram>
</mxfile>
